<svg width="648" height="656" viewBox="0 0 648 656" fill="none" xmlns="http://www.w3.org/2000/svg">
<path fill-rule="evenodd" clip-rule="evenodd" d="M113.966 5.24441C74.2966 15.7269 47.118 34.5735 26.1626 66.1229C0.46751 104.81 -0.0541465 110.009 0.00290839 327.392C0.0355112 442.043 1.73493 530.532 4.11493 541.279C16.2839 596.238 60.8723 642.083 112.947 653.177L126.192 656L126.237 567.064C126.282 471.491 128.898 454.343 148.549 420.822C162.834 396.459 191.451 372.707 216.115 364.742C232.184 359.552 252.23 357.979 300.882 358.081C391.836 358.269 442.032 366.384 442.032 380.896C442.032 386.71 345.764 488.316 340.258 488.316C337.968 488.316 327.792 479.288 317.644 468.256C307.496 457.219 294.056 446.904 287.772 445.327C265.263 439.68 244.768 462.043 250.723 485.758C253.828 498.131 346.408 588.542 362.403 594.828C367.917 596.996 377.087 597.643 382.78 596.27C388.612 594.861 419.271 567.76 453.043 534.158L512.963 474.546L517.23 485.77C519.675 492.195 521.501 530.853 521.501 576.173C521.501 665.749 519.052 660.726 555.974 646.915C595.636 632.081 628.984 595.056 643.415 549.839C649.528 530.69 649.528 128.167 643.415 109.019C634.291 80.4269 621.107 59.25 601.415 41.5482C555.465 0.249622 551.41 -0.349261 321.809 0.0581438C189.336 0.298513 126.787 1.85888 113.966 5.24441ZM378.269 99.3141C402.419 112.453 417.547 130.44 428.343 158.844C438.018 184.303 437.94 205.879 428.07 231.847C417.07 260.777 403.581 276.881 379.263 290.114C325.081 319.594 254.28 299.264 227.326 246.493C215.104 222.57 212.618 180.18 221.991 155.642C233.916 124.422 260.671 99.2367 293.257 88.5464C313.785 81.8161 355.915 87.1531 378.269 99.3141ZM589.763 306.3C595.049 311.055 598.933 319.3 598.933 325.754C598.933 338.836 628.105 346.348 562.744 417.131C535.79 446.321 495.595 489.864 473.417 513.889C437.904 552.368 396.473 557.575 384.688 557.575C375.082 557.575 368.92 554.544 362.86 546.84C345.906 525.296 351.938 512.427 405.57 455.724C421.463 438.919 452.95 405.002 475.535 380.354C523.657 327.844 553.713 298.568 562.255 295.883C570.511 293.288 578.784 296.425 589.763 306.3Z" fill="white"/>
</svg>
